<?xml version="1.0" encoding="UTF-8"?>
<svg width="800" height="500" viewBox="0 0 800 500" xmlns="http://www.w3.org/2000/svg">
  <style>
    text {
      font-family: Arial, sans-serif;
    }
    .title {
      font-size: 24px;
      font-weight: bold;
    }
    .subtitle {
      font-size: 16px;
    }
    .day-header {
      font-size: 18px;
      font-weight: bold;
    }
    .label {
      font-size: 14px;
    }
    .small-label {
      font-size: 12px;
    }
  </style>

  <!-- Background -->
  <rect x="0" y="0" width="800" height="500" fill="#f8f9fa" rx="10" ry="10" />
  
  <!-- Title -->
  <text x="400" y="40" class="title" text-anchor="middle">Weekly Carb Cycling Schedule</text>
  <text x="400" y="70" class="subtitle" text-anchor="middle">Sample 7-day rotation optimized for fat loss and athletic performance</text>
  
  <!-- Day Cards -->
  <!-- Monday - High Carb -->
  <g transform="translate(40, 120)">
    <rect x="0" y="0" width="100" height="200" fill="#e3f2fd" rx="5" ry="5" stroke="#1565c0" stroke-width="2" />
    <text x="50" y="30" class="day-header" text-anchor="middle">Monday</text>
    <text x="50" y="60" class="label" text-anchor="middle" fill="#1565c0" font-weight="bold">High Carb</text>
    <line x1="20" y1="75" x2="80" y2="75" stroke="#1565c0" stroke-width="2" />
    <text x="50" y="100" class="label" text-anchor="middle">300g Carbs</text>
    <text x="50" y="130" class="label" text-anchor="middle">150g Protein</text>
    <text x="50" y="160" class="label" text-anchor="middle">45g Fat</text>
    <text x="50" y="185" class="small-label" text-anchor="middle">Heavy Training</text>
  </g>
  
  <!-- Tuesday - Low Carb -->
  <g transform="translate(150, 120)">
    <rect x="0" y="0" width="100" height="200" fill="#ffebee" rx="5" ry="5" stroke="#c62828" stroke-width="2" />
    <text x="50" y="30" class="day-header" text-anchor="middle">Tuesday</text>
    <text x="50" y="60" class="label" text-anchor="middle" fill="#c62828" font-weight="bold">Low Carb</text>
    <line x1="20" y1="75" x2="80" y2="75" stroke="#c62828" stroke-width="2" />
    <text x="50" y="100" class="label" text-anchor="middle">60g Carbs</text>
    <text x="50" y="130" class="label" text-anchor="middle">150g Protein</text>
    <text x="50" y="160" class="label" text-anchor="middle">90g Fat</text>
    <text x="50" y="185" class="small-label" text-anchor="middle">Rest Day</text>
  </g>
  
  <!-- Wednesday - Moderate Carb -->
  <g transform="translate(260, 120)">
    <rect x="0" y="0" width="100" height="200" fill="#e8f5e9" rx="5" ry="5" stroke="#2e7d32" stroke-width="2" />
    <text x="50" y="30" class="day-header" text-anchor="middle">Wednesday</text>
    <text x="50" y="60" class="label" text-anchor="middle" fill="#2e7d32" font-weight="bold">Moderate</text>
    <line x1="20" y1="75" x2="80" y2="75" stroke="#2e7d32" stroke-width="2" />
    <text x="50" y="100" class="label" text-anchor="middle">175g Carbs</text>
    <text x="50" y="130" class="label" text-anchor="middle">150g Protein</text>
    <text x="50" y="160" class="label" text-anchor="middle">65g Fat</text>
    <text x="50" y="185" class="small-label" text-anchor="middle">Light Training</text>
  </g>
  
  <!-- Thursday - High Carb -->
  <g transform="translate(370, 120)">
    <rect x="0" y="0" width="100" height="200" fill="#e3f2fd" rx="5" ry="5" stroke="#1565c0" stroke-width="2" />
    <text x="50" y="30" class="day-header" text-anchor="middle">Thursday</text>
    <text x="50" y="60" class="label" text-anchor="middle" fill="#1565c0" font-weight="bold">High Carb</text>
    <line x1="20" y1="75" x2="80" y2="75" stroke="#1565c0" stroke-width="2" />
    <text x="50" y="100" class="label" text-anchor="middle">300g Carbs</text>
    <text x="50" y="130" class="label" text-anchor="middle">150g Protein</text>
    <text x="50" y="160" class="label" text-anchor="middle">45g Fat</text>
    <text x="50" y="185" class="small-label" text-anchor="middle">Heavy Training</text>
  </g>
  
  <!-- Friday - Moderate Carb -->
  <g transform="translate(480, 120)">
    <rect x="0" y="0" width="100" height="200" fill="#e8f5e9" rx="5" ry="5" stroke="#2e7d32" stroke-width="2" />
    <text x="50" y="30" class="day-header" text-anchor="middle">Friday</text>
    <text x="50" y="60" class="label" text-anchor="middle" fill="#2e7d32" font-weight="bold">Moderate</text>
    <line x1="20" y1="75" x2="80" y2="75" stroke="#2e7d32" stroke-width="2" />
    <text x="50" y="100" class="label" text-anchor="middle">175g Carbs</text>
    <text x="50" y="130" class="label" text-anchor="middle">150g Protein</text>
    <text x="50" y="160" class="label" text-anchor="middle">65g Fat</text>
    <text x="50" y="185" class="small-label" text-anchor="middle">Light Training</text>
  </g>
  
  <!-- Saturday - High Carb -->
  <g transform="translate(590, 120)">
    <rect x="0" y="0" width="100" height="200" fill="#e3f2fd" rx="5" ry="5" stroke="#1565c0" stroke-width="2" />
    <text x="50" y="30" class="day-header" text-anchor="middle">Saturday</text>
    <text x="50" y="60" class="label" text-anchor="middle" fill="#1565c0" font-weight="bold">High Carb</text>
    <line x1="20" y1="75" x2="80" y2="75" stroke="#1565c0" stroke-width="2" />
    <text x="50" y="100" class="label" text-anchor="middle">300g Carbs</text>
    <text x="50" y="130" class="label" text-anchor="middle">150g Protein</text>
    <text x="50" y="160" class="label" text-anchor="middle">45g Fat</text>
    <text x="50" y="185" class="small-label" text-anchor="middle">Heavy Training</text>
  </g>
  
  <!-- Sunday - Low Carb -->
  <g transform="translate(700, 120)">
    <rect x="0" y="0" width="100" height="200" fill="#ffebee" rx="5" ry="5" stroke="#c62828" stroke-width="2" />
    <text x="50" y="30" class="day-header" text-anchor="middle">Sunday</text>
    <text x="50" y="60" class="label" text-anchor="middle" fill="#c62828" font-weight="bold">Low Carb</text>
    <line x1="20" y1="75" x2="80" y2="75" stroke="#c62828" stroke-width="2" />
    <text x="50" y="100" class="label" text-anchor="middle">60g Carbs</text>
    <text x="50" y="130" class="label" text-anchor="middle">150g Protein</text>
    <text x="50" y="160" class="label" text-anchor="middle">90g Fat</text>
    <text x="50" y="185" class="small-label" text-anchor="middle">Rest Day</text>
  </g>
  
  <!-- Legend -->
  <rect x="200" y="350" width="20" height="20" fill="#e3f2fd" stroke="#1565c0" stroke-width="2" />
  <text x="230" y="365" class="label">High Carb Day: 50% carbs, 30% protein, 20% fat</text>
  
  <rect x="200" y="390" width="20" height="20" fill="#e8f5e9" stroke="#2e7d32" stroke-width="2" />
  <text x="230" y="405" class="label">Moderate Carb Day: 35% carbs, 30% protein, 35% fat</text>
  
  <rect x="200" y="430" width="20" height="20" fill="#ffebee" stroke="#c62828" stroke-width="2" />
  <text x="230" y="445" class="label">Low Carb Day: 15% carbs, 35% protein, 50% fat</text>
  
  <!-- Footer Notes -->
  <text x="400" y="480" class="small-label" text-anchor="middle">Note: Schedule training intensity to align with carb availability - heaviest training on high carb days.</text>
</svg>