<?xml version="1.0" encoding="UTF-8"?>
<svg width="800" height="500" viewBox="0 0 800 500" xmlns="http://www.w3.org/2000/svg">
  <style>
    text {
      font-family: Arial, sans-serif;
    }
    .title {
      font-size: 24px;
      font-weight: bold;
    }
    .subtitle {
      font-size: 16px;
    }
    .label {
      font-size: 14px;
    }
    .value {
      font-size: 16px;
      font-weight: bold;
    }
    .small-label {
      font-size: 12px;
    }
  </style>
  
  <!-- Background -->
  <rect x="0" y="0" width="800" height="500" fill="#f8f9fa" rx="10" ry="10" />
  
  <!-- Title -->
  <text x="400" y="40" class="title" text-anchor="middle">Carb Cycling Macro Comparison</text>
  <text x="400" y="70" class="subtitle" text-anchor="middle">Macronutrient breakdown by carb day type (based on 2000 calorie diet)</text>
  
  <!-- High Carb Day Chart -->
  <g transform="translate(180, 150)">
    <!-- Chart Title -->
    <text x="0" y="-30" class="label" font-weight="bold">High Carb Day</text>
    
    <!-- Pie chart -->
    <circle cx="0" cy="0" r="70" fill="white" stroke="#ddd" stroke-width="1" />
    
    <!-- Carbs Slice (50%) -->
    <path d="M 0 0 L 0 -70 A 70 70 0 0 1 69.28 34.65 Z" fill="#1565c0" />
    
    <!-- Protein Slice (30%) -->
    <path d="M 0 0 L 69.28 34.65 A 70 70 0 0 1 -34.65 69.28 Z" fill="#4caf50" />
    
    <!-- Fat Slice (20%) -->
    <path d="M 0 0 L -34.65 69.28 A 70 70 0 0 1 0 -70 Z" fill="#ff9800" />
    
    <!-- Legend -->
    <rect x="100" y="-40" width="15" height="15" fill="#1565c0" />
    <text x="120" y="-28" class="label">Carbs: 50%</text>
    <text x="120" y="-10" class="small-label">(250g | 1000 calories)</text>
    
    <rect x="100" y="15" width="15" height="15" fill="#4caf50" />
    <text x="120" y="27" class="label">Protein: 30%</text>
    <text x="120" y="45" class="small-label">(150g | 600 calories)</text>
    
    <rect x="100" y="70" width="15" height="15" fill="#ff9800" />
    <text x="120" y="82" class="label">Fat: 20%</text>
    <text x="120" y="100" class="small-label">(45g | 400 calories)</text>
  </g>
  
  <!-- Low Carb Day Chart -->
  <g transform="translate(620, 150)">
    <!-- Chart Title -->
    <text x="0" y="-30" class="label" font-weight="bold">Low Carb Day</text>
    
    <!-- Pie chart -->
    <circle cx="0" cy="0" r="70" fill="white" stroke="#ddd" stroke-width="1" />
    
    <!-- Carbs Slice (15%) -->
    <path d="M 0 0 L 0 -70 A 70 70 0 0 1 54.28 -39.95 Z" fill="#1565c0" />
    
    <!-- Protein Slice (35%) -->
    <path d="M 0 0 L 54.28 -39.95 A 70 70 0 0 1 0 70 Z" fill="#4caf50" />
    
    <!-- Fat Slice (50%) -->
    <path d="M 0 0 L 0 70 A 70 70 0 0 1 0 -70 Z" fill="#ff9800" />
    
    <!-- Legend -->
    <rect x="-170" y="-40" width="15" height="15" fill="#1565c0" />
    <text x="-150" y="-28" class="label">Carbs: 15%</text>
    <text x="-150" y="-10" class="small-label">(75g | 300 calories)</text>
    
    <rect x="-170" y="15" width="15" height="15" fill="#4caf50" />
    <text x="-150" y="27" class="label">Protein: 35%</text>
    <text x="-150" y="45" class="small-label">(175g | 700 calories)</text>
    
    <rect x="-170" y="70" width="15" height="15" fill="#ff9800" />
    <text x="-150" y="82" class="label">Fat: 50%</text>
    <text x="-150" y="100" class="small-label">(111g | 1000 calories)</text>
  </g>
  
  <!-- Moderate Carb Day Chart -->
  <g transform="translate(400, 350)">
    <!-- Chart Title -->
    <text x="0" y="-30" class="label" font-weight="bold">Moderate Carb Day</text>
    
    <!-- Pie chart -->
    <circle cx="0" cy="0" r="70" fill="white" stroke="#ddd" stroke-width="1" />
    
    <!-- Carbs Slice (35%) -->
    <path d="M 0 0 L 0 -70 A 70 70 0 0 1 69.28 34.65 Z" fill="#1565c0" />
    
    <!-- Protein Slice (30%) -->
    <path d="M 0 0 L 69.28 34.65 A 70 70 0 0 1 -69.28 34.65 Z" fill="#4caf50" />
    
    <!-- Fat Slice (35%) -->
    <path d="M 0 0 L -69.28 34.65 A 70 70 0 0 1 0 -70 Z" fill="#ff9800" />
    
    <!-- Legend -->
    <rect x="100" y="-40" width="15" height="15" fill="#1565c0" />
    <text x="120" y="-28" class="label">Carbs: 35%</text>
    <text x="120" y="-10" class="small-label">(175g | 700 calories)</text>
    
    <rect x="100" y="15" width="15" height="15" fill="#4caf50" />
    <text x="120" y="27" class="label">Protein: 30%</text>
    <text x="120" y="45" class="small-label">(150g | 600 calories)</text>
    
    <rect x="100" y="70" width="15" height="15" fill="#ff9800" />
    <text x="120" y="82" class="label">Fat: 35%</text>
    <text x="120" y="100" class="small-label">(78g | 700 calories)</text>
  </g>
  
  <!-- Footer Notes -->
  <text x="400" y="480" class="small-label" text-anchor="middle" fill="#555">Note: Exact macro ratios should be personalized based on individual needs, activity levels, and body composition goals.</text>
</svg>